<svg xmlns="http://www.w3.org/2000/svg" viewBox="0 0 48 48" aria-hidden="true">
  <path fill="#EA4335" d="M24 9.5c3.54 0 6.72 1.22 9.22 3.6l6.85-6.85C35.9 2.42 30.47 0 24 0 14.61 0 6.51 5.38 2.56 13.22l7.98 6.2C12.43 13.17 17.74 9.5 24 9.5z"/>
  <path fill="#4285F4" d="M46.98 24.55c0-1.64-.15-3.22-.43-4.55H24v9.02h12.94c-.58 2.96-2.25 5.47-4.79 7.16l7.73 6c4.51-4.17 7.1-10.32 7.1-17.63z"/>
  <path fill="#FBBC05" d="M10.54 28.58A14.5 14.5 0 0 1 9.77 24c0-1.59.27-3.13.77-4.58l-7.98-6.2A23.94 23.94 0 0 0 0 24c0 3.88.93 7.55 2.56 10.78l7.98-6.2z"/>
  <path fill="#34A853" d="M24 48c6.48 0 11.92-2.13 15.88-5.82l-7.73-6c-2.15 1.44-4.9 2.3-8.15 2.3-6.26 0-11.57-3.67-13.46-8.92l-7.98 6.2C6.51 42.62 14.61 48 24 48z"/>
</svg>
